<mxfile host="Electron" modified="2024-03-01T20:55:05.565Z" agent="Mozilla/5.0 (Windows NT 10.0; Win64; x64) AppleWebKit/537.36 (KHTML, like Gecko) draw.io/23.1.5 Chrome/120.0.6099.109 Electron/28.1.0 Safari/537.36" etag="-_C4Hj_vobKtGCjKHl5u" version="23.1.5" type="device">
  <diagram name="Page-1" id="4EArcXitMcrEj0bCWERe">
    <mxGraphModel dx="1232" dy="1195" grid="1" gridSize="10" guides="1" tooltips="1" connect="1" arrows="1" fold="1" page="1" pageScale="1" pageWidth="1654" pageHeight="1169" math="0" shadow="0">
      <root>
        <mxCell id="0" />
        <mxCell id="1" parent="0" />
        <mxCell id="VXZ-TGSTyZCSuU3cwNCK-23" value="" style="rounded=0;whiteSpace=wrap;html=1;shadow=1;fillColor=none;fontColor=#333333;strokeColor=#666666;" vertex="1" parent="1">
          <mxGeometry x="10" y="10" width="760" height="720" as="geometry" />
        </mxCell>
        <mxCell id="GAXlSB1JeahquLHdT9OJ-3" style="edgeStyle=orthogonalEdgeStyle;rounded=0;orthogonalLoop=1;jettySize=auto;html=1;endArrow=open;endFill=0;startArrow=diamondThin;startFill=1;" parent="1" edge="1">
          <mxGeometry relative="1" as="geometry">
            <Array as="points">
              <mxPoint x="210" y="92.5" />
              <mxPoint x="210" y="92.5" />
            </Array>
            <mxPoint x="250" y="92.5" as="sourcePoint" />
            <mxPoint x="170" y="92.5" as="targetPoint" />
          </mxGeometry>
        </mxCell>
        <mxCell id="VXZ-TGSTyZCSuU3cwNCK-1" value="&amp;nbsp;has&amp;nbsp;" style="edgeLabel;html=1;align=center;verticalAlign=bottom;resizable=0;points=[];fontStyle=2;labelBackgroundColor=none;" vertex="1" connectable="0" parent="GAXlSB1JeahquLHdT9OJ-3">
          <mxGeometry x="0.0321" y="1" relative="1" as="geometry">
            <mxPoint x="21" y="-1" as="offset" />
          </mxGeometry>
        </mxCell>
        <mxCell id="GAXlSB1JeahquLHdT9OJ-29" style="edgeStyle=orthogonalEdgeStyle;rounded=1;orthogonalLoop=1;jettySize=auto;html=1;endArrow=open;endFill=0;startArrow=diamondThin;startFill=1;curved=0;" parent="1" source="GAXlSB1JeahquLHdT9OJ-1" target="GAXlSB1JeahquLHdT9OJ-28" edge="1">
          <mxGeometry relative="1" as="geometry">
            <Array as="points">
              <mxPoint x="250" y="450" />
              <mxPoint x="310" y="450" />
            </Array>
          </mxGeometry>
        </mxCell>
        <mxCell id="VXZ-TGSTyZCSuU3cwNCK-2" value="&amp;nbsp;has" style="edgeLabel;html=1;align=center;verticalAlign=top;resizable=0;points=[];fontStyle=2;labelBackgroundColor=none;" vertex="1" connectable="0" parent="GAXlSB1JeahquLHdT9OJ-29">
          <mxGeometry x="-0.6735" relative="1" as="geometry">
            <mxPoint x="10" y="-43" as="offset" />
          </mxGeometry>
        </mxCell>
        <mxCell id="GAXlSB1JeahquLHdT9OJ-1" value="&lt;p style=&quot;margin:0px;margin-top:4px;text-align:center;&quot;&gt;&lt;b&gt;Property&lt;/b&gt;&lt;/p&gt;&lt;hr size=&quot;1&quot;&gt;&lt;p style=&quot;margin:0px;margin-left:4px;&quot;&gt;- name: String&lt;/p&gt;&lt;p style=&quot;margin:0px;margin-left:4px;&quot;&gt;- title: String&lt;/p&gt;&lt;p style=&quot;margin:0px;margin-left:4px;&quot;&gt;- tip: String&lt;/p&gt;&lt;p style=&quot;margin:0px;margin-left:4px;&quot;&gt;- flags:&amp;nbsp;PropertyFlags[*]&lt;/p&gt;&lt;hr size=&quot;1&quot;&gt;&lt;p style=&quot;margin:0px;margin-left:4px;&quot;&gt;&amp;nbsp;&lt;/p&gt;" style="verticalAlign=top;align=left;overflow=fill;fontSize=12;fontFamily=Helvetica;html=1;fillColor=#ffe6cc;strokeColor=#000000;" parent="1" vertex="1">
          <mxGeometry x="250" y="50" width="160" height="110" as="geometry" />
        </mxCell>
        <mxCell id="GAXlSB1JeahquLHdT9OJ-2" value="&lt;p style=&quot;margin:0px;margin-top:4px;text-align:center;&quot;&gt;&lt;span style=&quot;background-color: initial;&quot;&gt;&lt;i&gt;&amp;lt;&amp;lt;enumeration&amp;gt;&amp;gt;&lt;/i&gt;&lt;/span&gt;&lt;/p&gt;&lt;b style=&quot;border-color: var(--border-color);&quot;&gt;&lt;div style=&quot;text-align: center;&quot;&gt;&lt;b style=&quot;background-color: initial; border-color: var(--border-color);&quot;&gt;OTGui/Property&lt;/b&gt;&lt;/div&gt;&lt;div style=&quot;text-align: center;&quot;&gt;&lt;b style=&quot;background-color: initial; border-color: var(--border-color);&quot;&gt;::&lt;b style=&quot;background-color: initial;&quot;&gt;PropertyFlags&lt;/b&gt;&lt;/b&gt;&lt;/div&gt;&lt;/b&gt;&lt;hr size=&quot;1&quot;&gt;&lt;p style=&quot;margin:0px;margin-left:4px;&quot;&gt;&lt;span style=&quot;background-color: initial;&quot;&gt;IsReadOnly&lt;/span&gt;&lt;br&gt;&lt;/p&gt;&lt;p style=&quot;margin:0px;margin-left:4px;&quot;&gt;&lt;span style=&quot;&quot;&gt;&lt;/span&gt;&lt;/p&gt;&lt;p style=&quot;margin:0px;margin-left:4px;&quot;&gt;&lt;span style=&quot;&quot;&gt;IsProtected&lt;/span&gt;&lt;/p&gt;&lt;p style=&quot;margin:0px;margin-left:4px;&quot;&gt;&lt;span style=&quot;&quot;&gt;IsHidden&lt;/span&gt;&lt;/p&gt;&lt;p style=&quot;margin:0px;margin-left:4px;&quot;&gt;&lt;span style=&quot;&quot;&gt;HasMultipleValues&lt;/span&gt;&lt;/p&gt;&lt;p style=&quot;margin:0px;margin-left:4px;&quot;&gt;&lt;span style=&quot;&quot;&gt;HasInputError&lt;/span&gt;&lt;/p&gt;&lt;p style=&quot;margin:0px;margin-left:4px;&quot;&gt;&lt;span style=&quot;&quot;&gt;AllowCustomValues&lt;/span&gt;&lt;/p&gt;&lt;p style=&quot;margin:0px;margin-left:4px;&quot;&gt;&lt;span style=&quot;&quot;&gt;AllowMultiselection&lt;/span&gt;&lt;/p&gt;" style="verticalAlign=top;align=left;overflow=fill;fontSize=12;fontFamily=Helvetica;html=1;fillColor=#ffe6cc;strokeColor=#000000;" parent="1" vertex="1">
          <mxGeometry x="50" y="50" width="120" height="170" as="geometry" />
        </mxCell>
        <mxCell id="GAXlSB1JeahquLHdT9OJ-12" style="edgeStyle=orthogonalEdgeStyle;rounded=1;orthogonalLoop=1;jettySize=auto;html=1;curved=0;dashed=1;endArrow=block;endFill=0;" parent="1" source="GAXlSB1JeahquLHdT9OJ-4" target="GAXlSB1JeahquLHdT9OJ-1" edge="1">
          <mxGeometry relative="1" as="geometry">
            <Array as="points">
              <mxPoint x="210" y="270" />
              <mxPoint x="210" y="130" />
            </Array>
          </mxGeometry>
        </mxCell>
        <mxCell id="GAXlSB1JeahquLHdT9OJ-4" value="&lt;p style=&quot;margin:0px;margin-top:4px;text-align:center;&quot;&gt;&lt;b&gt;PropertyBool&lt;/b&gt;&lt;/p&gt;&lt;hr size=&quot;1&quot;&gt;&lt;p style=&quot;margin:0px;margin-left:4px;&quot;&gt;&lt;br&gt;&lt;/p&gt;" style="verticalAlign=top;align=left;overflow=fill;fontSize=12;fontFamily=Helvetica;html=1;fillColor=#ffe6cc;strokeColor=#000000;" parent="1" vertex="1">
          <mxGeometry x="50" y="250" width="120" height="40" as="geometry" />
        </mxCell>
        <mxCell id="GAXlSB1JeahquLHdT9OJ-13" style="edgeStyle=orthogonalEdgeStyle;rounded=1;orthogonalLoop=1;jettySize=auto;html=1;curved=0;dashed=1;endArrow=block;endFill=0;" parent="1" source="GAXlSB1JeahquLHdT9OJ-5" target="GAXlSB1JeahquLHdT9OJ-1" edge="1">
          <mxGeometry relative="1" as="geometry">
            <Array as="points">
              <mxPoint x="210" y="330" />
              <mxPoint x="210" y="130" />
            </Array>
          </mxGeometry>
        </mxCell>
        <mxCell id="GAXlSB1JeahquLHdT9OJ-5" value="&lt;p style=&quot;margin:0px;margin-top:4px;text-align:center;&quot;&gt;&lt;b&gt;PropertyInt&lt;/b&gt;&lt;/p&gt;&lt;hr size=&quot;1&quot;&gt;&lt;p style=&quot;margin:0px;margin-left:4px;&quot;&gt;&lt;br&gt;&lt;/p&gt;" style="verticalAlign=top;align=left;overflow=fill;fontSize=12;fontFamily=Helvetica;html=1;fillColor=#ffe6cc;strokeColor=#000000;" parent="1" vertex="1">
          <mxGeometry x="50" y="310" width="120" height="40" as="geometry" />
        </mxCell>
        <mxCell id="GAXlSB1JeahquLHdT9OJ-14" style="edgeStyle=orthogonalEdgeStyle;rounded=1;orthogonalLoop=1;jettySize=auto;html=1;dashed=1;curved=0;endArrow=block;endFill=0;" parent="1" source="GAXlSB1JeahquLHdT9OJ-6" target="GAXlSB1JeahquLHdT9OJ-1" edge="1">
          <mxGeometry relative="1" as="geometry">
            <Array as="points">
              <mxPoint x="210" y="390" />
              <mxPoint x="210" y="130" />
            </Array>
          </mxGeometry>
        </mxCell>
        <mxCell id="GAXlSB1JeahquLHdT9OJ-6" value="&lt;p style=&quot;margin:0px;margin-top:4px;text-align:center;&quot;&gt;&lt;b&gt;PropertyDouble&lt;/b&gt;&lt;/p&gt;&lt;hr size=&quot;1&quot;&gt;&lt;p style=&quot;margin:0px;margin-left:4px;&quot;&gt;&lt;br&gt;&lt;/p&gt;" style="verticalAlign=top;align=left;overflow=fill;fontSize=12;fontFamily=Helvetica;html=1;fillColor=#ffe6cc;strokeColor=#000000;" parent="1" vertex="1">
          <mxGeometry x="50" y="370" width="120" height="40" as="geometry" />
        </mxCell>
        <mxCell id="GAXlSB1JeahquLHdT9OJ-18" style="edgeStyle=orthogonalEdgeStyle;rounded=1;orthogonalLoop=1;jettySize=auto;html=1;dashed=1;endArrow=block;endFill=0;curved=0;" parent="1" source="GAXlSB1JeahquLHdT9OJ-7" target="GAXlSB1JeahquLHdT9OJ-1" edge="1">
          <mxGeometry relative="1" as="geometry">
            <Array as="points">
              <mxPoint x="210" y="450" />
              <mxPoint x="210" y="130" />
            </Array>
          </mxGeometry>
        </mxCell>
        <mxCell id="GAXlSB1JeahquLHdT9OJ-7" value="&lt;p style=&quot;margin:0px;margin-top:4px;text-align:center;&quot;&gt;&lt;b&gt;PropertyString&lt;/b&gt;&lt;/p&gt;&lt;hr size=&quot;1&quot;&gt;&lt;p style=&quot;margin:0px;margin-left:4px;&quot;&gt;&lt;br&gt;&lt;/p&gt;" style="verticalAlign=top;align=left;overflow=fill;fontSize=12;fontFamily=Helvetica;html=1;fillColor=#ffe6cc;strokeColor=#000000;" parent="1" vertex="1">
          <mxGeometry x="50" y="430" width="120" height="40" as="geometry" />
        </mxCell>
        <mxCell id="GAXlSB1JeahquLHdT9OJ-19" style="edgeStyle=orthogonalEdgeStyle;rounded=1;orthogonalLoop=1;jettySize=auto;html=1;dashed=1;endArrow=block;endFill=0;curved=0;" parent="1" source="GAXlSB1JeahquLHdT9OJ-8" target="GAXlSB1JeahquLHdT9OJ-1" edge="1">
          <mxGeometry relative="1" as="geometry">
            <Array as="points">
              <mxPoint x="210" y="510" />
              <mxPoint x="210" y="130" />
            </Array>
          </mxGeometry>
        </mxCell>
        <mxCell id="GAXlSB1JeahquLHdT9OJ-8" value="&lt;p style=&quot;margin:0px;margin-top:4px;text-align:center;&quot;&gt;&lt;b&gt;PropertyStringList&lt;/b&gt;&lt;/p&gt;&lt;hr size=&quot;1&quot;&gt;&lt;p style=&quot;margin:0px;margin-left:4px;&quot;&gt;&lt;br&gt;&lt;/p&gt;" style="verticalAlign=top;align=left;overflow=fill;fontSize=12;fontFamily=Helvetica;html=1;fillColor=#ffe6cc;strokeColor=#000000;" parent="1" vertex="1">
          <mxGeometry x="50" y="490" width="120" height="40" as="geometry" />
        </mxCell>
        <mxCell id="GAXlSB1JeahquLHdT9OJ-20" style="edgeStyle=orthogonalEdgeStyle;rounded=1;orthogonalLoop=1;jettySize=auto;html=1;dashed=1;endArrow=block;endFill=0;curved=0;" parent="1" source="GAXlSB1JeahquLHdT9OJ-9" target="GAXlSB1JeahquLHdT9OJ-1" edge="1">
          <mxGeometry relative="1" as="geometry">
            <Array as="points">
              <mxPoint x="210" y="570" />
              <mxPoint x="210" y="130" />
            </Array>
          </mxGeometry>
        </mxCell>
        <mxCell id="GAXlSB1JeahquLHdT9OJ-9" value="&lt;p style=&quot;margin:0px;margin-top:4px;text-align:center;&quot;&gt;&lt;b&gt;PropertyColor&lt;/b&gt;&lt;/p&gt;&lt;hr size=&quot;1&quot;&gt;&lt;p style=&quot;margin:0px;margin-left:4px;&quot;&gt;&lt;br&gt;&lt;/p&gt;" style="verticalAlign=top;align=left;overflow=fill;fontSize=12;fontFamily=Helvetica;html=1;fillColor=#ffe6cc;strokeColor=#000000;" parent="1" vertex="1">
          <mxGeometry x="50" y="550" width="120" height="40" as="geometry" />
        </mxCell>
        <mxCell id="GAXlSB1JeahquLHdT9OJ-21" style="edgeStyle=orthogonalEdgeStyle;rounded=1;orthogonalLoop=1;jettySize=auto;html=1;dashed=1;endArrow=block;endFill=0;curved=0;" parent="1" source="GAXlSB1JeahquLHdT9OJ-10" target="GAXlSB1JeahquLHdT9OJ-1" edge="1">
          <mxGeometry relative="1" as="geometry">
            <Array as="points">
              <mxPoint x="210" y="630" />
              <mxPoint x="210" y="130" />
            </Array>
          </mxGeometry>
        </mxCell>
        <mxCell id="GAXlSB1JeahquLHdT9OJ-10" value="&lt;p style=&quot;margin:0px;margin-top:4px;text-align:center;&quot;&gt;&lt;b&gt;PropertyFilePath&lt;/b&gt;&lt;/p&gt;&lt;hr size=&quot;1&quot;&gt;&lt;p style=&quot;margin:0px;margin-left:4px;&quot;&gt;&lt;br&gt;&lt;/p&gt;" style="verticalAlign=top;align=left;overflow=fill;fontSize=12;fontFamily=Helvetica;html=1;fillColor=#ffe6cc;strokeColor=#000000;" parent="1" vertex="1">
          <mxGeometry x="50" y="610" width="120" height="40" as="geometry" />
        </mxCell>
        <mxCell id="GAXlSB1JeahquLHdT9OJ-22" style="edgeStyle=orthogonalEdgeStyle;rounded=1;orthogonalLoop=1;jettySize=auto;html=1;dashed=1;endArrow=block;endFill=0;curved=0;" parent="1" source="GAXlSB1JeahquLHdT9OJ-11" target="GAXlSB1JeahquLHdT9OJ-1" edge="1">
          <mxGeometry relative="1" as="geometry">
            <Array as="points">
              <mxPoint x="210" y="690" />
              <mxPoint x="210" y="130" />
            </Array>
          </mxGeometry>
        </mxCell>
        <mxCell id="GAXlSB1JeahquLHdT9OJ-11" value="&lt;p style=&quot;margin:0px;margin-top:4px;text-align:center;&quot;&gt;&lt;b&gt;PropertyDirectory&lt;/b&gt;&lt;/p&gt;&lt;hr size=&quot;1&quot;&gt;&lt;p style=&quot;margin:0px;margin-left:4px;&quot;&gt;&lt;br&gt;&lt;/p&gt;" style="verticalAlign=top;align=left;overflow=fill;fontSize=12;fontFamily=Helvetica;html=1;fillColor=#ffe6cc;strokeColor=#000000;" parent="1" vertex="1">
          <mxGeometry x="50" y="670" width="120" height="40" as="geometry" />
        </mxCell>
        <mxCell id="GAXlSB1JeahquLHdT9OJ-25" style="edgeStyle=orthogonalEdgeStyle;rounded=0;orthogonalLoop=1;jettySize=auto;html=1;endArrow=open;endFill=0;startArrow=diamondThin;startFill=1;" parent="1" source="GAXlSB1JeahquLHdT9OJ-24" target="GAXlSB1JeahquLHdT9OJ-1" edge="1">
          <mxGeometry relative="1" as="geometry" />
        </mxCell>
        <mxCell id="GAXlSB1JeahquLHdT9OJ-32" value="&amp;nbsp;has&amp;nbsp;" style="edgeLabel;html=1;align=center;verticalAlign=bottom;resizable=0;points=[];labelBackgroundColor=none;fontStyle=2" parent="GAXlSB1JeahquLHdT9OJ-25" vertex="1" connectable="0">
          <mxGeometry x="-0.1148" y="3" relative="1" as="geometry">
            <mxPoint x="15" y="-3" as="offset" />
          </mxGeometry>
        </mxCell>
        <mxCell id="GAXlSB1JeahquLHdT9OJ-24" value="&lt;p style=&quot;margin:0px;margin-top:4px;text-align:center;&quot;&gt;&lt;b&gt;PropertyGroup&lt;/b&gt;&lt;/p&gt;&lt;hr size=&quot;1&quot;&gt;&lt;p style=&quot;margin:0px;margin-left:4px;&quot;&gt;- childGroups: PropertyGroup[*]&lt;/p&gt;&lt;p style=&quot;margin:0px;margin-left:4px;&quot;&gt;- properties:&amp;nbsp;Property[*]&lt;/p&gt;&lt;hr size=&quot;1&quot;&gt;&lt;p style=&quot;margin:0px;margin-left:4px;&quot;&gt;&amp;nbsp;&lt;/p&gt;" style="verticalAlign=top;align=left;overflow=fill;fontSize=12;fontFamily=Helvetica;html=1;fillColor=#ffe6cc;strokeColor=#000000;" parent="1" vertex="1">
          <mxGeometry x="490" y="50" width="200" height="110" as="geometry" />
        </mxCell>
        <mxCell id="GAXlSB1JeahquLHdT9OJ-30" style="edgeStyle=orthogonalEdgeStyle;rounded=1;orthogonalLoop=1;jettySize=auto;html=1;endArrow=openThin;endFill=0;startArrow=diamondThin;startFill=0;curved=0;" parent="1" source="GAXlSB1JeahquLHdT9OJ-27" target="GAXlSB1JeahquLHdT9OJ-1" edge="1">
          <mxGeometry relative="1" as="geometry">
            <Array as="points">
              <mxPoint x="290" y="250" />
              <mxPoint x="290" y="250" />
            </Array>
          </mxGeometry>
        </mxCell>
        <mxCell id="GAXlSB1JeahquLHdT9OJ-31" value="&amp;nbsp;creates&amp;nbsp;" style="edgeLabel;html=1;align=center;verticalAlign=bottom;resizable=0;points=[];labelBackgroundColor=none;fontStyle=2" parent="GAXlSB1JeahquLHdT9OJ-30" vertex="1" connectable="0">
          <mxGeometry x="-0.204" y="-1" relative="1" as="geometry">
            <mxPoint x="19" y="52" as="offset" />
          </mxGeometry>
        </mxCell>
        <mxCell id="GAXlSB1JeahquLHdT9OJ-27" value="&lt;p style=&quot;margin:0px;margin-top:4px;text-align:center;&quot;&gt;&lt;b&gt;PropertyFactory&lt;/b&gt;&lt;/p&gt;&lt;hr size=&quot;1&quot;&gt;&lt;p style=&quot;margin:0px;margin-left:4px;&quot;&gt;&lt;/p&gt;&lt;p style=&quot;margin:0px;margin-left:4px;&quot;&gt;&lt;u&gt;+ createProperty(obj: JsonObject): Property&lt;/u&gt;&lt;/p&gt;&lt;p style=&quot;margin:0px;margin-left:4px;&quot;&gt;&lt;u&gt;+ createProperty(type: Property::PropertyType): Property&lt;/u&gt;&lt;br&gt;&lt;/p&gt;" style="verticalAlign=top;align=left;overflow=fill;fontSize=12;fontFamily=Helvetica;html=1;fillColor=#ffe6cc;strokeColor=#000000;" parent="1" vertex="1">
          <mxGeometry x="290" y="340" width="320" height="70" as="geometry" />
        </mxCell>
        <mxCell id="GAXlSB1JeahquLHdT9OJ-28" value="&lt;p style=&quot;margin:0px;margin-top:4px;text-align:center;&quot;&gt;&lt;span style=&quot;background-color: initial;&quot;&gt;&lt;i&gt;&amp;lt;&amp;lt;enumeration&amp;gt;&amp;gt;&lt;/i&gt;&lt;/span&gt;&lt;/p&gt;&lt;b style=&quot;border-color: var(--border-color);&quot;&gt;&lt;div style=&quot;text-align: center;&quot;&gt;&lt;b style=&quot;background-color: initial; border-color: var(--border-color);&quot;&gt;OTGui/Property&lt;/b&gt;&lt;/div&gt;&lt;div style=&quot;text-align: center;&quot;&gt;&lt;b style=&quot;background-color: initial; border-color: var(--border-color);&quot;&gt;::&lt;b style=&quot;background-color: initial;&quot;&gt;PropertyType&lt;/b&gt;&lt;/b&gt;&lt;/div&gt;&lt;/b&gt;&lt;hr size=&quot;1&quot;&gt;&lt;p style=&quot;margin:0px;margin-left:4px;&quot;&gt;BoolType&lt;/p&gt;&lt;p style=&quot;margin:0px;margin-left:4px;&quot;&gt;IntType&lt;/p&gt;&lt;p style=&quot;margin:0px;margin-left:4px;&quot;&gt;DoubleType&lt;/p&gt;&lt;p style=&quot;margin:0px;margin-left:4px;&quot;&gt;StringType&lt;/p&gt;&lt;p style=&quot;margin:0px;margin-left:4px;&quot;&gt;StringListType&lt;/p&gt;&lt;p style=&quot;margin:0px;margin-left:4px;&quot;&gt;ColorType&lt;/p&gt;&lt;p style=&quot;margin:0px;margin-left:4px;&quot;&gt;FilePathType&lt;/p&gt;&lt;p style=&quot;margin:0px;margin-left:4px;&quot;&gt;DirectoryType&lt;/p&gt;" style="verticalAlign=top;align=left;overflow=fill;fontSize=12;fontFamily=Helvetica;html=1;fillColor=#ffe6cc;strokeColor=#000000;" parent="1" vertex="1">
          <mxGeometry x="250" y="490" width="120" height="200" as="geometry" />
        </mxCell>
        <mxCell id="VXZ-TGSTyZCSuU3cwNCK-12" style="edgeStyle=orthogonalEdgeStyle;rounded=1;orthogonalLoop=1;jettySize=auto;html=1;endArrow=open;endFill=0;curved=0;" edge="1" parent="1" source="VXZ-TGSTyZCSuU3cwNCK-4" target="GAXlSB1JeahquLHdT9OJ-24">
          <mxGeometry relative="1" as="geometry">
            <Array as="points">
              <mxPoint x="730" y="610" />
              <mxPoint x="730" y="130" />
            </Array>
          </mxGeometry>
        </mxCell>
        <mxCell id="VXZ-TGSTyZCSuU3cwNCK-4" value="&lt;p style=&quot;margin:0px;margin-top:4px;text-align:center;&quot;&gt;&lt;b&gt;PropertyDialogCfg&lt;/b&gt;&lt;/p&gt;&lt;hr size=&quot;1&quot;&gt;&lt;p style=&quot;margin:0px;margin-left:4px;&quot;&gt;- defaultGroup: Property&lt;/p&gt;&lt;p style=&quot;margin:0px;margin-left:4px;&quot;&gt;- rootGroups: Property*&lt;/p&gt;&lt;hr size=&quot;1&quot;&gt;&lt;p style=&quot;margin:0px;margin-left:4px;&quot;&gt;&lt;br&gt;&lt;/p&gt;" style="verticalAlign=top;align=left;overflow=fill;fontSize=12;fontFamily=Helvetica;html=1;fillColor=#ffe6cc;strokeColor=#000000;" vertex="1" parent="1">
          <mxGeometry x="450" y="570" width="160" height="80" as="geometry" />
        </mxCell>
        <mxCell id="VXZ-TGSTyZCSuU3cwNCK-6" value="*" style="text;html=1;align=center;verticalAlign=middle;whiteSpace=wrap;rounded=0;fontStyle=0" vertex="1" parent="1">
          <mxGeometry x="290" y="320" width="20" height="20" as="geometry" />
        </mxCell>
        <mxCell id="VXZ-TGSTyZCSuU3cwNCK-7" value="*" style="text;html=1;align=center;verticalAlign=middle;whiteSpace=wrap;rounded=0;fontStyle=0" vertex="1" parent="1">
          <mxGeometry x="470" y="110" width="20" height="20" as="geometry" />
        </mxCell>
        <mxCell id="VXZ-TGSTyZCSuU3cwNCK-8" value="1" style="text;html=1;align=center;verticalAlign=middle;whiteSpace=wrap;rounded=0;fontStyle=0" vertex="1" parent="1">
          <mxGeometry x="250" y="160" width="20" height="20" as="geometry" />
        </mxCell>
        <mxCell id="VXZ-TGSTyZCSuU3cwNCK-9" value="1" style="text;html=1;align=center;verticalAlign=middle;whiteSpace=wrap;rounded=0;fontStyle=0" vertex="1" parent="1">
          <mxGeometry x="230" y="95" width="20" height="20" as="geometry" />
        </mxCell>
        <mxCell id="VXZ-TGSTyZCSuU3cwNCK-17" style="edgeStyle=orthogonalEdgeStyle;rounded=0;orthogonalLoop=1;jettySize=auto;html=1;endArrow=open;endFill=0;" edge="1" parent="1" source="VXZ-TGSTyZCSuU3cwNCK-10" target="GAXlSB1JeahquLHdT9OJ-27">
          <mxGeometry relative="1" as="geometry">
            <Array as="points">
              <mxPoint x="490" y="430" />
              <mxPoint x="490" y="430" />
            </Array>
          </mxGeometry>
        </mxCell>
        <mxCell id="VXZ-TGSTyZCSuU3cwNCK-22" value="&amp;nbsp;uses" style="edgeLabel;html=1;align=left;verticalAlign=bottom;resizable=0;points=[];labelBackgroundColor=none;fontStyle=2" vertex="1" connectable="0" parent="VXZ-TGSTyZCSuU3cwNCK-17">
          <mxGeometry x="0.0893" y="-1" relative="1" as="geometry">
            <mxPoint x="-1" y="43" as="offset" />
          </mxGeometry>
        </mxCell>
        <mxCell id="VXZ-TGSTyZCSuU3cwNCK-10" value="&lt;p style=&quot;margin:0px;margin-top:4px;text-align:center;&quot;&gt;&lt;b&gt;OnePropertyDialogCfg&lt;/b&gt;&lt;/p&gt;&lt;hr size=&quot;1&quot;&gt;&lt;p style=&quot;margin:0px;margin-left:4px;&quot;&gt;- property: Property&lt;/p&gt;&lt;hr size=&quot;1&quot;&gt;&lt;p style=&quot;margin:0px;margin-left:4px;&quot;&gt;&lt;br&gt;&lt;/p&gt;" style="verticalAlign=top;align=left;overflow=fill;fontSize=12;fontFamily=Helvetica;html=1;fillColor=#ffe6cc;strokeColor=#000000;" vertex="1" parent="1">
          <mxGeometry x="450" y="490" width="160" height="60" as="geometry" />
        </mxCell>
        <mxCell id="VXZ-TGSTyZCSuU3cwNCK-13" style="edgeStyle=orthogonalEdgeStyle;rounded=1;orthogonalLoop=1;jettySize=auto;html=1;endArrow=open;endFill=0;startArrow=diamondThin;startFill=1;curved=0;" edge="1" parent="1" source="VXZ-TGSTyZCSuU3cwNCK-10" target="GAXlSB1JeahquLHdT9OJ-1">
          <mxGeometry relative="1" as="geometry">
            <Array as="points">
              <mxPoint x="690" y="520" />
              <mxPoint x="690" y="290" />
              <mxPoint x="330" y="290" />
            </Array>
          </mxGeometry>
        </mxCell>
        <mxCell id="VXZ-TGSTyZCSuU3cwNCK-15" value="&amp;nbsp;has&amp;nbsp;" style="edgeLabel;html=1;align=center;verticalAlign=bottom;resizable=0;points=[];labelBackgroundColor=none;fontStyle=2" vertex="1" connectable="0" parent="1">
          <mxGeometry x="630.0014285714287" y="520" as="geometry" />
        </mxCell>
        <mxCell id="VXZ-TGSTyZCSuU3cwNCK-16" value="1" style="text;html=1;align=center;verticalAlign=middle;whiteSpace=wrap;rounded=0;fontStyle=0" vertex="1" parent="1">
          <mxGeometry x="610" y="520" width="20" height="20" as="geometry" />
        </mxCell>
        <mxCell id="VXZ-TGSTyZCSuU3cwNCK-18" value="&amp;nbsp;has&amp;nbsp;" style="edgeLabel;html=1;align=center;verticalAlign=bottom;resizable=0;points=[];labelBackgroundColor=none;fontStyle=2" vertex="1" connectable="0" parent="1">
          <mxGeometry x="630.0014285714287" y="610" as="geometry" />
        </mxCell>
        <mxCell id="VXZ-TGSTyZCSuU3cwNCK-19" value="&amp;nbsp;1..*" style="text;html=1;align=center;verticalAlign=middle;whiteSpace=wrap;rounded=0;fontStyle=0" vertex="1" parent="1">
          <mxGeometry x="610" y="610" width="20" height="20" as="geometry" />
        </mxCell>
        <mxCell id="VXZ-TGSTyZCSuU3cwNCK-24" value="&lt;b&gt;&lt;font style=&quot;font-size: 16px;&quot;&gt;OTGui&lt;/font&gt;&lt;/b&gt;" style="text;html=1;align=center;verticalAlign=middle;whiteSpace=wrap;rounded=0;" vertex="1" parent="1">
          <mxGeometry x="690" y="690" width="60" height="30" as="geometry" />
        </mxCell>
      </root>
    </mxGraphModel>
  </diagram>
</mxfile>
